<svg width="463" height="291" viewBox="0 0 463 291" fill="none" xmlns="http://www.w3.org/2000/svg">
<path fill-rule="evenodd" clip-rule="evenodd" d="M463 0H0V291H384.508L463 245.446V0Z" fill="#22342E"/>
<path d="M63.966 48.926H62.228C52.116 48.926 43.9 57.142 43.9 67.254V142.462C43.9 152.732 52.116 160.948 62.228 160.948H64.282C74.394 160.948 82.768 152.732 82.768 142.462V100.75H65.862V111.336H72.182V142.462C72.182 146.886 68.706 150.362 64.282 150.362H62.228C57.962 150.362 54.328 146.886 54.328 142.462V67.254C54.328 62.988 57.962 59.354 62.228 59.354H63.966C68.548 59.354 72.182 63.146 72.182 67.57V72.942H82.768V67.57C82.768 57.3 74.394 48.926 63.966 48.926ZM134.255 49.242H130.779C120.509 49.242 112.135 57.616 112.135 67.728V142.462C112.135 152.574 120.509 160.948 130.779 160.948H134.255C144.525 160.948 152.741 152.574 152.741 142.462V67.728C152.741 57.616 144.525 49.242 134.255 49.242ZM142.313 142.462C142.313 146.886 138.679 150.362 134.255 150.362H130.779C126.355 150.362 122.721 146.886 122.721 142.462V67.728C122.721 63.304 126.355 59.828 130.779 59.828H134.255C138.679 59.828 142.313 63.304 142.313 67.728V142.462ZM199.127 137.722C189.805 137.722 182.221 130.138 182.221 120.816V65.2C182.221 56.036 189.805 48.452 199.127 48.452C208.449 48.452 216.033 56.036 216.033 65.2V120.816C216.033 130.138 208.449 137.722 199.127 137.722ZM199.127 58.88C195.493 58.88 192.649 61.724 192.649 65.2V120.816C192.649 124.292 195.493 127.136 199.127 127.136C202.761 127.136 205.605 124.292 205.605 120.816V65.2C205.605 61.724 202.761 58.88 199.127 58.88ZM182.221 149.414V160H216.033V149.414H182.221ZM265.427 49.4H245.519V160H265.743C275.697 160 283.913 151.784 283.913 141.83V68.044C283.913 57.774 275.697 49.4 265.427 49.4ZM273.327 141.83C273.327 145.938 270.009 149.414 265.743 149.414H255.947V59.986H265.427C269.851 59.986 273.327 63.62 273.327 68.044V141.83ZM323.876 49.4H313.29V160H346.312V149.414H323.876V49.4ZM403.579 49.4L389.675 88.584L375.771 49.4H364.553L384.461 105.332V160H394.889V105.332L414.797 49.4H403.579Z" fill="#F4C85F"/>
<path d="M54.432 186.6H44.1V244H54.596C59.762 244 64.026 239.736 64.026 234.57V196.276C64.026 190.946 59.762 186.6 54.432 186.6ZM58.532 234.57C58.532 236.702 56.81 238.506 54.596 238.506H49.512V192.094H54.432C56.728 192.094 58.532 193.98 58.532 196.276V234.57ZM79.2728 244H94.4428V238.506H84.7668V218.744H91.8188V213.25H84.7668V192.012H94.4428V186.6H79.2728V244ZM127.925 186.6L121.611 226.698L115.297 186.6H109.721L118.741 244H124.399L133.419 186.6H127.925ZM148.657 244H163.827V238.506H154.151V218.744H161.203V213.25H154.151V192.012H163.827V186.6H148.657V244ZM184.6 186.6H179.106V244H196.244V238.506H184.6V186.6ZM222.956 186.518H221.152C215.822 186.518 211.476 190.864 211.476 196.112V234.898C211.476 240.146 215.822 244.492 221.152 244.492H222.956C228.286 244.492 232.55 240.146 232.55 234.898V196.112C232.55 190.864 228.286 186.518 222.956 186.518ZM227.138 234.898C227.138 237.194 225.252 238.998 222.956 238.998H221.152C218.856 238.998 216.97 237.194 216.97 234.898V196.112C216.97 193.816 218.856 192.012 221.152 192.012H222.956C225.252 192.012 227.138 193.816 227.138 196.112V234.898ZM257.936 186.6H247.85V244H253.344V218.498H257.936C263.184 218.498 267.53 214.152 267.53 208.822V196.194C267.53 190.864 263.184 186.6 257.936 186.6ZM262.036 208.822C262.036 211.118 260.232 213.004 257.936 213.004H253.344V192.012H257.936C260.232 192.012 262.036 193.898 262.036 196.194V208.822ZM306.152 186.6L297.296 234.488L288.44 186.6H282.782V244H288.276V210.708L294.344 244H300.166L306.316 210.708V244H311.81V186.6H306.152ZM327.084 244H342.254V238.506H332.578V218.744H339.63V213.25H332.578V192.012H342.254V186.6H327.084V244ZM380.902 244V186.6H375.408V225.96L363.19 186.846H357.532V244H363.026V204.476L375.326 244H380.902ZM394.547 192.012H402.993V244H408.405V192.012H416.851V186.6H394.547V192.012Z" fill="#F4C85F"/>
</svg>
