<svg width="386" height="205" viewBox="0 0 386 205" fill="none" xmlns="http://www.w3.org/2000/svg">
<rect width="386" height="205" fill="#0F4C81"/>
<path d="M64.4844 62.7734C62.8438 63.6328 60.9609 64.3203 58.8359 64.8359C56.7109 65.3516 54.5625 65.6094 52.3906 65.6094C48.8594 65.6094 45.75 64.9688 43.0625 63.6875C40.3906 62.3906 38.3125 60.5703 36.8281 58.2266C35.3594 55.8672 34.625 53.1406 34.625 50.0469C34.625 46.875 35.4688 44.0625 37.1562 41.6094C38.8438 39.1562 41.1094 37.2578 43.9531 35.9141C46.7969 34.5703 49.8984 33.8984 53.2578 33.8984C55.1016 33.8984 56.7891 34.0391 58.3203 34.3203C59.8672 34.6016 61.6094 35.0859 63.5469 35.7734L64.25 42.8516C63.7656 42.8984 63.3125 42.9219 62.8906 42.9219C62.6719 42.7344 62.4688 42.4922 62.2812 42.1953C62.1094 41.8984 61.8672 41.4531 61.5547 40.8594C61.3984 40.5469 61.2344 40.2422 61.0625 39.9453C60.8906 39.6328 60.7344 39.3906 60.5938 39.2188C58.625 36.875 55.9766 35.7031 52.6484 35.7031C50.2734 35.7031 48.1406 36.2891 46.25 37.4609C44.3594 38.6328 42.8828 40.25 41.8203 42.3125C40.7578 44.3594 40.2266 46.6484 40.2266 49.1797C40.2266 51.9141 40.75 54.375 41.7969 56.5625C42.8594 58.75 44.3438 60.4609 46.25 61.6953C48.1562 62.9297 50.3359 63.5469 52.7891 63.5469C54.0859 63.5469 55.2266 63.4375 56.2109 63.2188C57.2109 62.9844 58.1562 62.5859 59.0469 62.0234C59.2344 60.4297 59.3281 58.4453 59.3281 56.0703C59.3281 54.5859 59.1094 53.2422 58.6719 52.0391C58.5 51.5547 58.1719 51.2188 57.6875 51.0312C57.2188 50.8281 56.5781 50.6641 55.7656 50.5391C55.0469 50.4141 54.5469 50.2969 54.2656 50.1875C54.2656 49.9531 54.2734 49.7188 54.2891 49.4844C54.3047 49.2344 54.3125 49.0625 54.3125 48.9688H68.375C68.375 49.0625 68.3828 49.2344 68.3984 49.4844C68.4141 49.7188 68.4219 49.9531 68.4219 50.1875C68.2188 50.2656 67.9922 50.3438 67.7422 50.4219C66.9922 50.6875 66.4062 50.9375 65.9844 51.1719C65.5625 51.4062 65.2031 51.7656 64.9062 52.25C64.625 52.7188 64.4844 53.3516 64.4844 54.1484V62.7734ZM81.8047 43.2969C83.8828 43.2969 85.7734 43.75 87.4766 44.6562C89.1953 45.5469 90.5547 46.8281 91.5547 48.5C92.5547 50.1562 93.0547 52.0859 93.0547 54.2891C93.0547 56.4922 92.5547 58.4453 91.5547 60.1484C90.5547 61.8359 89.2188 63.1484 87.5469 64.0859C85.875 65.0078 84.0469 65.4688 82.0625 65.4688C80.0938 65.4688 78.25 64.9922 76.5312 64.0391C74.8125 63.0859 73.4375 61.7656 72.4062 60.0781C71.375 58.375 70.8594 56.4531 70.8594 54.3125C70.8594 52.1719 71.3594 50.2656 72.3594 48.5938C73.3594 46.9062 74.6953 45.6016 76.3672 44.6797C78.0547 43.7578 79.8672 43.2969 81.8047 43.2969ZM82.3672 63.6406C84.3516 63.6406 85.8594 62.9297 86.8906 61.5078C87.9219 60.0859 88.4375 58.2188 88.4375 55.9062C88.4375 53.9062 88.1562 52.0703 87.5938 50.3984C87.0469 48.7109 86.2578 47.3672 85.2266 46.3672C84.1953 45.3672 83.0078 44.8672 81.6641 44.8672C80.4766 44.8672 79.4219 45.1562 78.5 45.7344C77.5938 46.3125 76.875 47.2031 76.3438 48.4062C75.8125 49.6094 75.5469 51.1172 75.5469 52.9297C75.5469 54.7109 75.8281 56.4297 76.3906 58.0859C76.9531 59.7266 77.75 61.0625 78.7812 62.0938C79.8125 63.125 81.0078 63.6406 82.3672 63.6406ZM107.867 43.2969C109.945 43.2969 111.836 43.75 113.539 44.6562C115.258 45.5469 116.617 46.8281 117.617 48.5C118.617 50.1562 119.117 52.0859 119.117 54.2891C119.117 56.4922 118.617 58.4453 117.617 60.1484C116.617 61.8359 115.281 63.1484 113.609 64.0859C111.938 65.0078 110.109 65.4688 108.125 65.4688C106.156 65.4688 104.312 64.9922 102.594 64.0391C100.875 63.0859 99.5 61.7656 98.4688 60.0781C97.4375 58.375 96.9219 56.4531 96.9219 54.3125C96.9219 52.1719 97.4219 50.2656 98.4219 48.5938C99.4219 46.9062 100.758 45.6016 102.43 44.6797C104.117 43.7578 105.93 43.2969 107.867 43.2969ZM108.43 63.6406C110.414 63.6406 111.922 62.9297 112.953 61.5078C113.984 60.0859 114.5 58.2188 114.5 55.9062C114.5 53.9062 114.219 52.0703 113.656 50.3984C113.109 48.7109 112.32 47.3672 111.289 46.3672C110.258 45.3672 109.07 44.8672 107.727 44.8672C106.539 44.8672 105.484 45.1562 104.562 45.7344C103.656 46.3125 102.938 47.2031 102.406 48.4062C101.875 49.6094 101.609 51.1172 101.609 52.9297C101.609 54.7109 101.891 56.4297 102.453 58.0859C103.016 59.7266 103.812 61.0625 104.844 62.0938C105.875 63.125 107.07 63.6406 108.43 63.6406ZM140.328 37.4609C140.125 37.1484 139.727 36.8359 139.133 36.5234C138.555 36.2109 137.984 35.9453 137.422 35.7266C136.875 35.5078 136.516 35.375 136.344 35.3281L136.391 34.5078L143 32.9141L144.688 32.75V60.3359C144.688 61.2734 145.086 61.9453 145.883 62.3516C146.695 62.7578 147.562 62.9609 148.484 62.9609V64.25L142.227 65.2812H140.656L140.445 61.6484C139.336 62.9297 138.172 63.8906 136.953 64.5312C135.734 65.1562 134.43 65.4688 133.039 65.4688C131.273 65.4688 129.656 65.0469 128.188 64.2031C126.734 63.3438 125.586 62.1484 124.742 60.6172C123.898 59.0703 123.477 57.2969 123.477 55.2969C123.477 53 123.945 50.9453 124.883 49.1328C125.836 47.3203 127.141 45.9062 128.797 44.8906C130.453 43.875 132.305 43.3672 134.352 43.3672C135.305 43.3672 136.234 43.5156 137.141 43.8125C138.047 44.0938 139.109 44.5234 140.328 45.1016V37.4609ZM140.328 53.0469C140.328 51.5312 140.195 50.3125 139.93 49.3906C139.664 48.4531 139.125 47.625 138.312 46.9062C137.688 46.3594 137.016 45.9375 136.297 45.6406C135.578 45.3281 134.852 45.1719 134.117 45.1719C132.883 45.1719 131.789 45.5703 130.836 46.3672C129.883 47.1641 129.141 48.2266 128.609 49.5547C128.094 50.8672 127.836 52.2891 127.836 53.8203C127.836 55.3047 128.094 56.7266 128.609 58.0859C129.141 59.4297 129.93 60.5312 130.977 61.3906C132.023 62.25 133.289 62.6797 134.773 62.6797C135.961 62.6797 137.016 62.4219 137.938 61.9062C138.875 61.375 139.672 60.6719 140.328 59.7969V53.0469ZM158.375 59.5156C158.375 60.8281 158.641 61.8438 159.172 62.5625C159.719 63.2656 160.617 63.6875 161.867 63.8281C161.867 64.0625 161.859 64.2969 161.844 64.5312C161.828 64.7656 161.82 64.9219 161.82 65H150.289L150.266 63.8281C150.406 63.7344 150.586 63.6484 150.805 63.5703C151.039 63.4922 151.273 63.4219 151.508 63.3594C152.195 63.1719 152.734 62.9688 153.125 62.75C153.516 62.5156 153.75 62.1719 153.828 61.7188C153.953 61.0469 154.016 60.3594 154.016 59.6562L153.992 37.6016C153.805 37.2891 153.422 36.9844 152.844 36.6875C152.281 36.375 151.727 36.1172 151.18 35.9141C150.633 35.6953 150.281 35.5625 150.125 35.5156L150.172 34.6953L156.688 32.9141L158.375 32.75V59.5156ZM166.812 48.3125C166.438 47.4688 166.078 46.8359 165.734 46.4141C165.391 45.9922 165.07 45.7188 164.773 45.5938C164.492 45.4531 164.156 45.3516 163.766 45.2891C163.531 45.2578 163.312 45.2109 163.109 45.1484V43.9297H174.102C174.133 44.0703 174.172 44.3281 174.219 44.7031C174.281 45.0625 174.281 45.25 174.219 45.2656C173.188 45.4531 172.43 45.6719 171.945 45.9219C171.461 46.1562 171.219 46.5234 171.219 47.0234C171.219 47.3516 171.32 47.8359 171.523 48.4766L176.164 60.0312L180.172 49.1797C180.406 48.5703 180.523 48.0391 180.523 47.5859C180.523 46.9141 180.281 46.4062 179.797 46.0625C179.312 45.7031 178.539 45.4297 177.477 45.2422C177.461 45.1484 177.453 44.9688 177.453 44.7031C177.453 44.5156 177.453 44.3516 177.453 44.2109C177.469 44.0703 177.477 43.9766 177.477 43.9297H186.078L186.102 45.125C185.852 45.3281 185.508 45.5078 185.07 45.6641C184.664 45.8359 184.32 46.0078 184.039 46.1797C183.773 46.3359 183.508 46.5938 183.242 46.9531C182.992 47.3125 182.781 47.8047 182.609 48.4297L174.289 68.9141C173.602 70.6328 172.781 71.9531 171.828 72.875C170.891 73.7969 169.695 74.2578 168.242 74.2578C167.195 74.2578 166.328 74.0078 165.641 73.5078C164.969 73.0234 164.633 72.3672 164.633 71.5391C164.633 70.9297 164.844 70.4141 165.266 69.9922C165.703 69.5703 166.227 69.3594 166.836 69.3594C167.383 69.3594 167.789 69.4531 168.055 69.6406C168.336 69.8281 168.609 70.1094 168.875 70.4844C169.078 70.7656 169.266 70.9766 169.438 71.1172C169.625 71.2734 169.875 71.3516 170.188 71.3516C170.672 71.3516 171.102 71.1328 171.477 70.6953C171.852 70.2578 172.203 69.6641 172.531 68.9141C172.875 68.1797 173.352 67.0234 173.961 65.4453L174.125 65L166.812 48.3125ZM38.8438 102.328C38.8438 101.406 38.7656 100.461 38.6094 99.4922C38.5156 99.0234 38.2812 98.6406 37.9062 98.3438C37.5312 98.0312 37.1016 97.7891 36.6172 97.6172C36.1484 97.4297 35.5391 97.2344 34.7891 97.0312C34.2266 96.875 33.8281 96.7578 33.5938 96.6797L33.6406 95.4844H47.5156C51.4219 95.4844 54.8594 95.9922 57.8281 97.0078C60.7969 98.0234 63.1406 99.6562 64.8594 101.906C66.5781 104.141 67.4375 107.031 67.4375 110.578C67.4375 113.297 66.7812 115.836 65.4688 118.195C64.1719 120.539 62.2422 122.43 59.6797 123.867C57.1328 125.289 54.0703 126 50.4922 126H33.6406L33.5938 124.781L34.8359 124.453C35.7109 124.25 36.4141 124.047 36.9453 123.844C37.4766 123.641 37.9219 123.305 38.2812 122.836C38.6562 122.352 38.8438 121.695 38.8438 120.867V102.328ZM43.8828 119.648C43.8828 121.008 44.1406 122.078 44.6562 122.859C45.1875 123.641 46.0859 124.062 47.3516 124.125C48.2266 124.172 49.125 124.195 50.0469 124.195C52.6094 124.195 54.7812 123.602 56.5625 122.414C58.3438 121.211 59.6719 119.656 60.5469 117.75C61.4219 115.844 61.8594 113.836 61.8594 111.727C61.8594 108.93 61.3594 106.453 60.3594 104.297C59.3594 102.125 57.8047 100.414 55.6953 99.1641C53.6016 97.9141 50.9766 97.2891 47.8203 97.2891H43.8828V119.648ZM75.6641 113.672C75.6484 113.828 75.6406 114.055 75.6406 114.352C75.6406 116.32 75.9922 117.969 76.6953 119.297C77.4141 120.609 78.3672 121.586 79.5547 122.227C80.7578 122.852 82.1016 123.164 83.5859 123.164C85.5547 123.164 87.4531 122.602 89.2812 121.477L89.9609 122.133C89.5859 123.039 88.9531 123.82 88.0625 124.477C87.1875 125.133 86.1875 125.633 85.0625 125.977C83.9531 126.305 82.875 126.469 81.8281 126.469C79.8594 126.469 78.0859 126.008 76.5078 125.086C74.9453 124.164 73.7188 122.875 72.8281 121.219C71.9531 119.562 71.5156 117.664 71.5156 115.523C71.5156 113.352 71.9922 111.414 72.9453 109.711C73.8984 107.992 75.1641 106.664 76.7422 105.727C78.3359 104.773 80.0391 104.297 81.8516 104.297C83.3359 104.297 84.6719 104.602 85.8594 105.211C87.0625 105.805 88.0391 106.648 88.7891 107.742C89.5391 108.82 90.0156 110.062 90.2188 111.469C90.3906 112.188 90.4766 112.852 90.4766 113.461V113.672H75.6641ZM84.1016 112.172C84.7891 112.141 85.3672 112.016 85.8359 111.797C85.7266 109.938 85.2891 108.484 84.5234 107.438C83.7734 106.391 82.7031 105.867 81.3125 105.867C80.2969 105.867 79.3906 106.172 78.5938 106.781C77.8125 107.391 77.1797 108.203 76.6953 109.219C76.2109 110.219 75.8984 111.32 75.7578 112.523L84.1016 112.172ZM103.531 126.281C103.344 126.375 103.109 126.422 102.828 126.422C102.531 126.422 102.297 126.375 102.125 126.281L94.9531 109.031C94.6875 108.375 94.4453 107.891 94.2266 107.578C94.0078 107.25 93.7969 107.023 93.5938 106.898C93.3906 106.773 93.1016 106.656 92.7266 106.547C92.3359 106.422 91.9766 106.289 91.6484 106.148V104.93H102.195C102.195 105.055 102.211 105.242 102.242 105.492C102.289 105.742 102.312 105.977 102.312 106.195C101.297 106.477 100.539 106.75 100.039 107.016C99.5391 107.281 99.2891 107.672 99.2891 108.188C99.2891 108.344 99.3281 108.555 99.4062 108.82L104.188 120.609L108.219 110.789C108.656 109.711 108.875 108.883 108.875 108.305C108.828 107.758 108.562 107.344 108.078 107.062C107.609 106.766 106.859 106.492 105.828 106.242C105.812 106.148 105.805 105.969 105.805 105.703C105.805 105.516 105.805 105.352 105.805 105.211C105.82 105.07 105.828 104.977 105.828 104.93H114.547C114.578 105.195 114.594 105.594 114.594 106.125C114.297 106.297 114.008 106.438 113.727 106.547C113.273 106.75 112.898 106.945 112.602 107.133C112.32 107.305 112.016 107.578 111.688 107.953C111.375 108.328 111.078 108.828 110.797 109.453L103.531 126.281ZM120.523 113.672C120.508 113.828 120.5 114.055 120.5 114.352C120.5 116.32 120.852 117.969 121.555 119.297C122.273 120.609 123.227 121.586 124.414 122.227C125.617 122.852 126.961 123.164 128.445 123.164C130.414 123.164 132.312 122.602 134.141 121.477L134.82 122.133C134.445 123.039 133.812 123.82 132.922 124.477C132.047 125.133 131.047 125.633 129.922 125.977C128.812 126.305 127.734 126.469 126.688 126.469C124.719 126.469 122.945 126.008 121.367 125.086C119.805 124.164 118.578 122.875 117.688 121.219C116.812 119.562 116.375 117.664 116.375 115.523C116.375 113.352 116.852 111.414 117.805 109.711C118.758 107.992 120.023 106.664 121.602 105.727C123.195 104.773 124.898 104.297 126.711 104.297C128.195 104.297 129.531 104.602 130.719 105.211C131.922 105.805 132.898 106.648 133.648 107.742C134.398 108.82 134.875 110.062 135.078 111.469C135.25 112.188 135.336 112.852 135.336 113.461V113.672H120.523ZM128.961 112.172C129.648 112.141 130.227 112.016 130.695 111.797C130.586 109.938 130.148 108.484 129.383 107.438C128.633 106.391 127.562 105.867 126.172 105.867C125.156 105.867 124.25 106.172 123.453 106.781C122.672 107.391 122.039 108.203 121.555 109.219C121.07 110.219 120.758 111.32 120.617 112.523L128.961 112.172ZM146.234 120.516C146.234 121.828 146.5 122.844 147.031 123.562C147.578 124.266 148.477 124.688 149.727 124.828C149.727 125.062 149.719 125.297 149.703 125.531C149.688 125.766 149.68 125.922 149.68 126H138.148L138.125 124.828C138.266 124.734 138.445 124.648 138.664 124.57C138.898 124.492 139.133 124.422 139.367 124.359C140.055 124.172 140.594 123.969 140.984 123.75C141.375 123.516 141.609 123.172 141.688 122.719C141.812 122.047 141.875 121.359 141.875 120.656L141.852 98.6016C141.664 98.2891 141.281 97.9844 140.703 97.6875C140.141 97.375 139.586 97.1172 139.039 96.9141C138.492 96.6953 138.141 96.5625 137.984 96.5156L138.031 95.6953L144.547 93.9141L146.234 93.75V120.516ZM163.836 104.297C165.914 104.297 167.805 104.75 169.508 105.656C171.227 106.547 172.586 107.828 173.586 109.5C174.586 111.156 175.086 113.086 175.086 115.289C175.086 117.492 174.586 119.445 173.586 121.148C172.586 122.836 171.25 124.148 169.578 125.086C167.906 126.008 166.078 126.469 164.094 126.469C162.125 126.469 160.281 125.992 158.562 125.039C156.844 124.086 155.469 122.766 154.438 121.078C153.406 119.375 152.891 117.453 152.891 115.312C152.891 113.172 153.391 111.266 154.391 109.594C155.391 107.906 156.727 106.602 158.398 105.68C160.086 104.758 161.898 104.297 163.836 104.297ZM164.398 124.641C166.383 124.641 167.891 123.93 168.922 122.508C169.953 121.086 170.469 119.219 170.469 116.906C170.469 114.906 170.188 113.07 169.625 111.398C169.078 109.711 168.289 108.367 167.258 107.367C166.227 106.367 165.039 105.867 163.695 105.867C162.508 105.867 161.453 106.156 160.531 106.734C159.625 107.312 158.906 108.203 158.375 109.406C157.844 110.609 157.578 112.117 157.578 113.93C157.578 115.711 157.859 117.43 158.422 119.086C158.984 120.727 159.781 122.062 160.812 123.094C161.844 124.125 163.039 124.641 164.398 124.641ZM186.219 129.375C186.219 130.812 186.555 131.844 187.227 132.469C187.914 133.109 189.016 133.516 190.531 133.688C190.531 133.922 190.523 134.148 190.508 134.367C190.492 134.602 190.484 134.766 190.484 134.859H178.133C178.133 134.766 178.125 134.602 178.109 134.367C178.094 134.148 178.086 133.922 178.086 133.688C179.32 133.516 180.258 133.094 180.898 132.422C181.539 131.766 181.859 130.82 181.859 129.586V109.266C181.594 108.797 181.086 108.367 180.336 107.977C179.602 107.586 178.875 107.258 178.156 106.992L177.969 106.922V106.125L184.297 104.484H185.891L186.078 108.328C187.234 107.047 188.398 106.055 189.57 105.352C190.742 104.648 192.078 104.297 193.578 104.297C195.344 104.297 196.914 104.727 198.289 105.586C199.664 106.43 200.734 107.648 201.5 109.242C202.266 110.82 202.648 112.68 202.648 114.82C202.648 117.102 202.18 119.125 201.242 120.891C200.32 122.641 199.047 124.008 197.422 124.992C195.797 125.961 193.977 126.445 191.961 126.445C190.914 126.445 189.906 126.258 188.938 125.883C187.969 125.508 187.062 124.961 186.219 124.242V129.375ZM186.219 117.867C186.219 119.148 186.453 120.289 186.922 121.289C187.406 122.273 188.109 123.055 189.031 123.633C189.953 124.195 191.047 124.477 192.312 124.477C194.266 124.477 195.75 123.719 196.766 122.203C197.781 120.688 198.289 118.609 198.289 115.969C198.289 114.078 197.992 112.484 197.398 111.188C196.805 109.891 196.023 108.93 195.055 108.305C194.086 107.664 193.023 107.344 191.867 107.344C190.023 107.344 188.141 108.273 186.219 110.133V117.867ZM213.758 120.492C213.758 121.68 213.945 122.57 214.32 123.164C214.695 123.742 215.125 124.117 215.609 124.289C216.094 124.461 216.852 124.641 217.883 124.828C217.883 125.062 217.875 125.297 217.859 125.531C217.844 125.766 217.836 125.922 217.836 126H205.742V124.758C205.773 124.742 205.992 124.68 206.398 124.57C207.18 124.383 207.82 124.164 208.32 123.914C208.82 123.648 209.125 123.25 209.234 122.719C209.312 122.453 209.359 122.188 209.375 121.922C209.391 121.641 209.398 121.266 209.398 120.797V108.984C209.211 108.609 208.836 108.281 208.273 108C207.727 107.703 207.156 107.461 206.562 107.273C205.969 107.07 205.672 106.977 205.672 106.992L205.742 106.195L212.188 104.602L213.57 104.508L213.828 108.328C214.75 107.125 215.836 106.156 217.086 105.422C218.336 104.672 219.734 104.297 221.281 104.297C222.812 104.297 224.078 104.609 225.078 105.234C226.078 105.859 226.844 106.805 227.375 108.07C228.125 107.242 228.836 106.57 229.508 106.055C230.18 105.523 230.93 105.109 231.758 104.812C232.586 104.5 233.523 104.344 234.57 104.344C236.617 104.344 238.258 104.828 239.492 105.797C240.742 106.75 241.453 108.203 241.625 110.156C241.75 111.625 241.812 113.102 241.812 114.586V120.727C241.812 121.508 241.867 122.172 241.977 122.719C242.055 123.172 242.25 123.531 242.562 123.797C242.891 124.062 243.211 124.25 243.523 124.359C243.836 124.453 244.383 124.609 245.164 124.828C245.164 125.062 245.156 125.297 245.141 125.531C245.125 125.75 245.117 125.906 245.117 126H233.844C233.844 125.906 233.836 125.75 233.82 125.531C233.805 125.297 233.797 125.062 233.797 124.828C233.875 124.812 233.961 124.789 234.055 124.758C234.164 124.727 234.273 124.695 234.383 124.664C235.195 124.445 235.844 124.211 236.328 123.961C236.812 123.695 237.117 123.297 237.242 122.766C237.367 122.141 237.43 121.461 237.43 120.727V111.422C237.43 109.953 237.055 108.82 236.305 108.023C235.555 107.211 234.484 106.805 233.094 106.805C232.125 106.805 231.164 107.094 230.211 107.672C229.258 108.234 228.414 108.922 227.68 109.734C227.773 110.812 227.82 112.547 227.82 114.938V120.609C227.82 121.5 227.867 122.188 227.961 122.672C228.055 123.234 228.344 123.648 228.828 123.914C229.328 124.18 229.984 124.422 230.797 124.641C231.234 124.781 231.445 124.844 231.43 124.828C231.43 125.062 231.422 125.297 231.406 125.531C231.391 125.766 231.383 125.922 231.383 126H219.664C219.664 125.906 219.656 125.75 219.641 125.531C219.625 125.297 219.617 125.062 219.617 124.828C219.68 124.812 220.055 124.742 220.742 124.617C221.445 124.477 222.07 124.062 222.617 123.375C223.164 122.672 223.438 121.758 223.438 120.633V112.477C223.438 110.648 223.148 109.25 222.57 108.281C221.992 107.312 220.984 106.828 219.547 106.828C218.422 106.828 217.398 107.125 216.477 107.719C215.57 108.297 214.664 109.094 213.758 110.109V120.492ZM251.867 113.672C251.852 113.828 251.844 114.055 251.844 114.352C251.844 116.32 252.195 117.969 252.898 119.297C253.617 120.609 254.57 121.586 255.758 122.227C256.961 122.852 258.305 123.164 259.789 123.164C261.758 123.164 263.656 122.602 265.484 121.477L266.164 122.133C265.789 123.039 265.156 123.82 264.266 124.477C263.391 125.133 262.391 125.633 261.266 125.977C260.156 126.305 259.078 126.469 258.031 126.469C256.062 126.469 254.289 126.008 252.711 125.086C251.148 124.164 249.922 122.875 249.031 121.219C248.156 119.562 247.719 117.664 247.719 115.523C247.719 113.352 248.195 111.414 249.148 109.711C250.102 107.992 251.367 106.664 252.945 105.727C254.539 104.773 256.242 104.297 258.055 104.297C259.539 104.297 260.875 104.602 262.062 105.211C263.266 105.805 264.242 106.648 264.992 107.742C265.742 108.82 266.219 110.062 266.422 111.469C266.594 112.188 266.68 112.852 266.68 113.461V113.672H251.867ZM260.305 112.172C260.992 112.141 261.57 112.016 262.039 111.797C261.93 109.938 261.492 108.484 260.727 107.438C259.977 106.391 258.906 105.867 257.516 105.867C256.5 105.867 255.594 106.172 254.797 106.781C254.016 107.391 253.383 108.203 252.898 109.219C252.414 110.219 252.102 111.32 251.961 112.523L260.305 112.172ZM277.414 120.797C277.414 122.141 277.75 123.117 278.422 123.727C279.109 124.32 280.148 124.688 281.539 124.828C281.539 125.062 281.531 125.297 281.516 125.531C281.5 125.766 281.492 125.922 281.492 126H269.422L269.398 125.25C269.398 125 269.406 124.828 269.422 124.734C270.328 124.516 271.008 124.32 271.461 124.148C271.93 123.977 272.312 123.695 272.609 123.305C272.906 122.914 273.055 122.367 273.055 121.664V108.961C272.867 108.602 272.5 108.281 271.953 108C271.406 107.703 270.828 107.461 270.219 107.273C269.625 107.07 269.328 106.977 269.328 106.992L269.398 106.195L275.797 104.602L277.227 104.508L277.484 108.305C278.344 107.148 279.438 106.195 280.766 105.445C282.109 104.68 283.555 104.297 285.102 104.297C287.367 104.297 289.125 104.938 290.375 106.219C291.625 107.5 292.305 109.414 292.414 111.961C292.461 112.961 292.484 113.984 292.484 115.031V120.258C292.484 121.398 292.555 122.227 292.695 122.742C292.836 123.258 293.055 123.617 293.352 123.82C293.664 124.008 294.18 124.211 294.898 124.43L295.883 124.734C295.898 124.828 295.906 125 295.906 125.25L295.883 126H284.328C284.328 125.906 284.32 125.75 284.305 125.531C284.289 125.297 284.281 125.062 284.281 124.828C284.391 124.781 284.703 124.688 285.219 124.547C286.047 124.312 286.688 124.062 287.141 123.797C287.609 123.531 287.891 123.102 287.984 122.508C288.062 122.055 288.102 121.453 288.102 120.703V115.477C288.102 113.398 288.023 111.797 287.867 110.672C287.727 109.547 287.336 108.625 286.695 107.906C286.07 107.188 285.055 106.828 283.648 106.828C282.539 106.828 281.469 107.148 280.438 107.789C279.422 108.43 278.414 109.281 277.414 110.344V120.797ZM305.117 118.641C305.117 120.234 305.172 121.375 305.281 122.062C305.391 122.734 305.656 123.227 306.078 123.539C306.5 123.836 307.211 123.984 308.211 123.984C308.805 123.984 309.398 123.93 309.992 123.82C310.586 123.711 311.086 123.594 311.492 123.469L311.68 125.18C310.883 125.57 310.078 125.883 309.266 126.117C308.453 126.352 307.477 126.469 306.336 126.469C304.82 126.469 303.664 126.219 302.867 125.719C302.07 125.219 301.516 124.414 301.203 123.305C300.891 122.18 300.734 120.602 300.734 118.57V106.688H297.242V105.867C298.305 105.445 299.195 104.953 299.914 104.391C300.648 103.812 301.25 103.219 301.719 102.609C302.188 102 302.75 101.195 303.406 100.195C303.688 99.7422 303.906 99.4453 304.062 99.3047C304.219 99.1484 304.375 99.0703 304.531 99.0703C304.688 99.0703 304.812 99.1484 304.906 99.3047C305.016 99.4453 305.07 99.6719 305.07 99.9844V104.93H310.953V106.688H305.117V118.641Z" fill="#E2D76F"/>
</svg>
