<svg width="192" height="192" viewBox="0 0 192 192" fill="none" xmlns="http://www.w3.org/2000/svg">
<path d="M96 192C149.019 192 192 149.019 192 96C192 42.9807 149.019 0 96 0C42.9807 0 0 42.9807 0 96C0 149.019 42.9807 192 96 192Z" fill="#F4C85F"/>
<path d="M71.5854 98C77.8293 98 83 92.7926 83 86.2834V59.8463H72.561V66.5557H76.4634V86.2834C76.4634 89.0874 74.3171 91.2905 71.5854 91.2905H70.3171C67.683 91.2905 65.439 89.0874 65.439 86.2834V38.6163C65.439 35.9125 67.683 33.6093 70.3171 33.6093H71.3901C74.2194 33.6093 76.4634 36.0127 76.4634 38.8167V42.2214H83V38.8167C83 32.3075 77.8292 27 71.3901 27H70.3171C64.0732 27 59 32.2073 59 38.6163V86.2834C59 92.7926 64.0732 98 70.3171 98H71.5854Z" fill="white"/>
<path d="M125.169 171C131.65 171 137 165.726 137 159.336V111.969C137 105.376 131.65 100 124.963 100H112V171H125.169ZM125.2 164H119V107H125C127.8 107 130 109.316 130 112.136V159.166C130 161.784 127.9 164 125.2 164Z" fill="white"/>
<path d="M65.2808 163.719L128.719 30.2815" stroke="white" stroke-width="8" stroke-linecap="square"/>
</svg>
